<svg width="4087" height="1816" viewBox="0 0 4087 1816" fill="none" xmlns="http://www.w3.org/2000/svg">
<g clip-path="url(#clip0_106_2881)">
<path d="M1287.87 270.97L1279.67 270.32C1278.25 270.21 1277.14 269.06 1277.09 267.64L1271.62 133.5C1271.55 131.86 1270.09 130.62 1268.46 130.83L1251.78 132.94C1250.38 133.12 1249.33 134.31 1249.33 135.72V289.25C1249.33 290.44 1250.08 291.5 1251.2 291.89L1277.98 301.41C1278.31 301.53 1278.66 301.58 1279 301.57L1348.33 299.5C1349.85 299.45 1351.05 298.21 1351.05 296.7V135.63C1351.05 134.26 1350.06 133.09 1348.71 132.86L1303.27 125.28C1301.63 125.01 1300.12 126.21 1300.01 127.87L1290.9 268.36C1290.8 269.92 1289.44 271.1 1287.88 270.98L1287.87 270.97Z" fill="white"/>
<path d="M1301.26 555.78L1289.42 554.85C1287.38 554.69 1285.77 553.03 1285.69 550.98L1277.8 357.34C1277.7 354.97 1275.6 353.19 1273.24 353.49L1249.16 356.54C1247.14 356.8 1245.62 358.52 1245.62 360.56V582.19C1245.62 583.9 1246.7 585.43 1248.31 586.01L1286.96 599.75C1287.43 599.92 1287.93 600 1288.44 599.98L1388.53 597C1390.72 596.93 1392.46 595.14 1392.46 592.95V360.43C1392.46 358.45 1391.03 356.76 1389.08 356.43L1323.49 345.49C1321.12 345.1 1318.94 346.83 1318.78 349.22L1305.62 552.02C1305.47 554.27 1303.51 555.97 1301.26 555.8V555.78Z" fill="white"/>
<path d="M1446.85 260.929L1432.52 259.799C1430.05 259.599 1428.11 257.589 1428.01 255.109L1418.46 20.7993C1418.34 17.9293 1415.8 15.7793 1412.95 16.1393L1383.81 19.8293C1381.36 20.1393 1379.52 22.2193 1379.52 24.6893V292.859C1379.52 294.929 1380.83 296.779 1382.78 297.479L1429.55 314.099C1430.12 314.299 1430.73 314.399 1431.34 314.379L1552.44 310.769C1555.09 310.689 1557.2 308.519 1557.2 305.869V24.5193C1557.2 22.1193 1555.47 20.0793 1553.1 19.6893L1473.74 6.44934C1470.88 5.96934 1468.23 8.06934 1468.04 10.9693L1452.12 256.359C1451.94 259.089 1449.57 261.139 1446.84 260.929H1446.85Z" fill="white"/>
<path d="M1070.35 598.03L1138.93 684.02H1268.69C1272.21 681.12 1272.63 675.89 1269.63 672.47L1213.46 608.46C1212.17 606.99 1211.46 605.1 1211.46 603.14V194.91C1211.46 191.43 1209.23 188.34 1205.92 187.25L1095.19 150.66C1094.03 150.28 1092.81 150.16 1091.6 150.32L917.651 173.35C913.641 173.88 910.641 177.3 910.641 181.35V573.61C910.641 577.78 913.811 581.26 917.961 581.64L1065.02 595.29C1067.08 595.48 1068.99 596.46 1070.35 598.02M1129.73 245.82L1138.92 511.89C1139.08 516.46 1135.41 520.25 1130.83 520.24L1117.08 520.2L1116.94 519.93H1081.04C1076.4 519.93 1072.72 516.03 1072.98 511.41L1087.9 247.51C1088.13 243.46 1091.33 240.21 1095.37 239.92L1121.07 238.05C1125.63 237.72 1129.56 241.25 1129.72 245.82H1129.73Z" fill="white"/>
<path d="M1634.14 160.83L1660.76 164.38C1662.98 164.68 1664.6 166.61 1664.51 168.84L1659.91 284.72C1659.81 287.18 1661.78 289.22 1664.24 289.22H1742.72C1745.11 289.22 1747.05 287.28 1747.05 284.89V18.3098C1747.05 15.7398 1744.82 13.7298 1742.26 14.0098L1674.09 21.2498C1671.95 21.4798 1670.31 23.2398 1670.22 25.3798L1666.61 116.28C1666.52 118.5 1664.77 120.29 1662.55 120.43L1634.43 122.17C1631.92 122.33 1629.8 120.31 1629.83 117.8L1631.24 4.38977C1631.27 1.97977 1629.32 0.00976562 1626.91 0.00976562H1588.08C1585.69 0.00976562 1583.75 1.94977 1583.75 4.33977V269.72C1583.75 272.02 1585.55 273.92 1587.84 274.04L1623.33 276C1625.79 276.14 1627.87 274.19 1627.9 271.73L1629.23 165.07C1629.26 162.47 1631.56 160.49 1634.13 160.83H1634.14Z" fill="white"/>
<path d="M1419.64 359.25V599.79C1419.64 601.82 1422.65 603.6 1426.97 604.13L1496.01 612.53C1502.3 613.29 1508.47 611.14 1508.47 608.19L1508.26 355.77C1508.26 353.09 1503.13 351.01 1497.27 351.31L1428.44 354.8C1423.43 355.05 1419.64 356.98 1419.64 359.26V359.25Z" fill="white"/>
<path d="M1691.52 488.82L1637.01 349.42C1636.25 347.48 1634.37 346.2 1632.29 346.2H1546.3C1543.5 346.2 1541.23 348.47 1541.23 351.27V653.6C1541.23 656.69 1543.96 659.06 1547.02 658.62L1641.19 645.14C1643.75 644.77 1645.63 642.54 1645.54 639.95L1642.05 535.01C1641.86 529.23 1649.94 527.68 1651.89 533.13L1697.85 661.42C1698.57 663.44 1700.48 664.78 1702.62 664.78H1742.88C1745.68 664.78 1747.95 662.51 1747.95 659.71V338.59C1747.95 335.79 1745.68 333.52 1742.88 333.52H1708.28C1705.5 333.52 1703.24 335.75 1703.21 338.53L1701.32 487.05C1701.25 492.62 1693.55 494.02 1691.53 488.83L1691.52 488.82Z" fill="white"/>
<path d="M1788.92 161.79L1780.69 629.5C1780.6 634.45 1784.68 638.47 1789.63 638.31L1821.64 637.289C1826.2 637.139 1829.87 633.49 1830.02 628.93L1833.3 533.52C1833.45 529.1 1836.91 525.5 1841.32 525.18L1916.28 519.64C1920.14 519.35 1923.72 521.66 1925.05 525.29L1959.93 620.21C1961.58 624.7 1966.56 627.009 1971.06 625.349L2126.03 568.31C2130.42 566.69 2132.73 561.89 2131.26 557.45L1985.16 116.54C1983.75 112.27 1979.3 109.8 1974.93 110.84L1795.56 153.52C1791.71 154.44 1788.97 157.84 1788.9 161.8L1788.92 161.79ZM1836.15 450.92L1839.9 341.88C1840.23 332.37 1853.41 330.26 1856.69 339.19L1894.43 441.9C1896.32 447.04 1893.02 452.63 1887.6 453.45L1846.11 459.78C1840.74 460.6 1835.96 456.34 1836.14 450.92H1836.15Z" fill="white"/>
<path d="M2496.16 647.6V1034.77C2496.16 1039.13 2499.29 1042.86 2503.59 1043.62L2698.11 1078.03C2698.63 1078.12 2699.15 1078.17 2699.68 1078.17H2878C2882.97 1078.17 2886.99 1074.14 2886.99 1069.18V910.11C2886.99 905.33 2883.25 901.39 2878.48 901.13L2831.91 898.61C2826.76 898.33 2822.43 902.43 2822.43 907.59V975.39C2822.43 979.69 2819.39 983.39 2815.17 984.21L2715.34 1003.77C2709.54 1004.91 2704.23 1000.23 2704.64 994.33L2724.81 700.27C2725.1 695.98 2728.39 692.5 2732.66 691.96L2812.32 681.95C2817.69 681.27 2822.43 685.46 2822.43 690.87V771.66C2822.43 776.31 2825.97 780.19 2830.6 780.61L2877.17 784.88C2882.44 785.36 2886.98 781.22 2886.98 775.93V640.53C2886.98 636.24 2883.94 632.54 2879.73 631.71L2733.08 602.73C2732.04 602.52 2730.97 602.5 2729.92 602.67L2503.73 638.71C2499.36 639.41 2496.15 643.17 2496.15 647.59L2496.16 647.6Z" fill="#FF551A"/>
<path d="M268.14 918.31L135.31 899.78C131.94 899.31 129.49 896.35 129.65 892.95L130.98 865.64C131.17 861.75 134.69 858.87 138.54 859.46L198.69 868.67C202.55 869.26 206.08 866.37 206.25 862.46L208.01 822.65C208.17 818.99 205.31 815.9 201.64 815.79L140.2 813.95C136.52 813.84 133.65 810.73 133.83 807.06L134.75 788.14C134.93 784.5 138.03 781.7 141.66 781.9L282.8 789.32C286.56 789.52 289.72 786.52 289.72 782.76V663.91C289.72 660.31 286.82 657.38 283.22 657.34L84.8199 655.15C81.1599 655.11 78.1699 658.06 78.1699 661.72V1010.61C78.1699 1014.16 80.9899 1017.07 84.5399 1017.18L267.02 1022.86C270.73 1022.98 273.8 1020 273.8 1016.29V924.82C273.8 921.54 271.38 918.76 268.13 918.31H268.14Z" fill="#FF551A"/>
<path d="M1340.11 1026L1191.78 1005.31C1188.02 1004.79 1185.28 1001.48 1185.46 997.679L1186.95 967.189C1187.16 962.839 1191.09 959.629 1195.39 960.289L1262.55 970.569C1266.87 971.229 1270.8 967.999 1270.99 963.639L1272.96 919.179C1273.14 915.089 1269.94 911.639 1265.85 911.519L1197.25 909.469C1193.14 909.349 1189.94 905.879 1190.14 901.769L1191.17 880.639C1191.37 876.579 1194.83 873.449 1198.89 873.669L1356.49 881.959C1360.69 882.179 1364.22 878.839 1364.22 874.629V741.909C1364.22 737.889 1360.98 734.609 1356.96 734.569L1135.42 732.129C1131.33 732.089 1128 735.379 1128 739.469V1129.06C1128 1133.03 1131.15 1136.27 1135.11 1136.4L1338.87 1142.75C1343.01 1142.88 1346.44 1139.56 1346.44 1135.41V1033.27C1346.44 1029.61 1343.74 1026.51 1340.11 1026Z" fill="#FF551A"/>
<path d="M2051.48 1076.76L1909.97 1053.83C1906.38 1053.25 1903.77 1049.58 1903.94 1045.37L1905.36 1011.57C1905.56 1006.75 1909.31 1003.19 1913.41 1003.92L1977.49 1015.31C1981.61 1016.04 1985.36 1012.46 1985.55 1007.63L1987.43 958.35C1987.6 953.81 1984.55 949.99 1980.64 949.86L1915.19 947.59C1911.27 947.45 1908.21 943.61 1908.4 939.06L1909.38 915.64C1909.57 911.14 1912.87 907.67 1916.74 907.91L2067.1 917.1C2071.11 917.34 2074.47 913.639 2074.47 908.969V761.85C2074.47 757.39 2071.38 753.76 2067.54 753.71L1856.18 751C1852.28 750.95 1849.1 754.61 1849.1 759.14V1191C1849.1 1195.4 1852.1 1199 1855.89 1199.13L2050.29 1206.17C2054.24 1206.31 2057.51 1202.63 2057.51 1198.04V1084.81C2057.51 1080.75 2054.93 1077.31 2051.47 1076.75L2051.48 1076.76Z" fill="#FF551A"/>
<path d="M3183.13 1043.65L3005.44 1014.89C3000.93 1014.16 2997.65 1009.56 2997.86 1004.28L2999.65 961.876C2999.9 955.83 3004.61 951.364 3009.75 952.28L3090.22 966.568C3095.39 967.484 3100.1 962.993 3100.34 956.934L3102.7 895.114C3102.92 889.418 3099.09 884.626 3094.18 884.463L3011.99 881.616C3007.07 881.44 3003.23 876.623 3003.46 870.915L3004.69 841.536C3004.93 835.891 3009.08 831.537 3013.94 831.839L3202.75 843.367C3207.78 843.668 3212 839.027 3212 833.168V648.612C3212 643.017 3208.12 638.463 3203.3 638.4L2937.89 635.001C2932.99 634.938 2929 639.529 2929 645.212V1186.96C2929 1192.48 2932.77 1197 2937.53 1197.16L3181.64 1206C3186.6 1206.17 3190.7 1201.55 3190.7 1195.8V1053.75C3190.7 1048.66 3187.46 1044.34 3183.12 1043.64L3183.13 1043.65Z" fill="#FF551A"/>
<path d="M649.381 653.92V1278.49C649.381 1284.64 654.621 1289.49 660.751 1289.01L723.441 1284.13C728.821 1283.71 733.021 1279.3 733.171 1273.9L736.231 1163.18C736.381 1157.85 740.471 1153.47 745.781 1152.96L947.681 1133.66C949.311 1133.5 950.881 1132.97 952.271 1132.1L1084.97 1049.15C1088.06 1047.22 1089.93 1043.84 1089.93 1040.2V747.08C1089.93 744.04 1088.62 741.16 1086.34 739.15L1004.68 667.39C1002.93 665.85 1000.71 664.93 998.381 664.78L660.591 643.36C654.511 642.97 649.371 647.8 649.371 653.89L649.381 653.92ZM821.381 1025.75L751.331 1029.38C745.181 1029.7 740.061 1024.7 740.231 1018.55L746.221 801.58C746.381 795.63 751.431 790.99 757.371 791.33L853.511 796.83C859.731 797.19 864.291 802.82 863.341 808.98L831.261 1016.82C830.501 1021.76 826.371 1025.49 821.371 1025.75H821.381Z" fill="#FF551A"/>
<path d="M1398.43 739.93V1134.51C1398.43 1137.96 1401.22 1140.75 1404.67 1140.75H1499.83C1503.13 1140.75 1505.86 1138.18 1506.06 1134.89L1512.54 1028.29C1512.74 1025 1515.47 1022.43 1518.77 1022.43H1541.47C1544.92 1022.43 1547.71 1025.22 1547.71 1028.67V1149.63C1547.71 1153.32 1550.89 1156.2 1554.56 1155.84L1637.9 1147.68C1641.09 1147.37 1643.53 1144.68 1643.53 1141.47V1059.79C1643.53 1058.49 1643.12 1057.22 1642.36 1056.16L1616.04 1019.38C1614.35 1017.01 1614.51 1013.79 1616.45 1011.61L1651.27 972.33C1652.28 971.19 1652.84 969.72 1652.84 968.19V791.01C1652.84 789.49 1652.29 788.02 1651.28 786.88L1599.9 728.65C1598.66 727.25 1596.86 726.469 1594.99 726.539L1404.45 733.69C1401.1 733.82 1398.45 736.57 1398.45 739.92L1398.43 739.93ZM1587.39 967.28L1522.94 968.849C1519.29 968.939 1516.34 965.879 1516.56 962.229L1526.88 792.57C1527.08 789.33 1529.72 786.79 1532.96 786.71L1575.13 785.74C1578.46 785.66 1581.26 788.209 1581.5 791.539L1593.47 960.599C1593.72 964.149 1590.96 967.19 1587.4 967.28H1587.39Z" fill="#FF551A"/>
<path d="M1694.65 787.3V1184.87C1694.65 1188.23 1698.91 1191.17 1705.02 1192.04L1802.68 1205.92C1811.57 1207.18 1820.3 1203.63 1820.3 1198.75L1820 781.54C1820 777.11 1812.74 773.67 1804.45 774.16L1707.09 779.93C1700 780.35 1694.65 783.53 1694.65 787.31V787.3Z" fill="#FF551A"/>
<g clip-path="url(#clip1_106_2881)">
<path d="M3137.42 1320.61H1700.14L1336.6 1252L848.922 1320.61C829.92 1320.61 813.292 1323.13 808.377 1326.75L770.452 1384.57C763.312 1389.83 783.405 1395 811.014 1395L3170.04 1394.82C3195.06 1394.82 3214.52 1390.52 3211.73 1385.61L3179.13 1327.97C3176.76 1323.78 3158.8 1320.6 3137.42 1320.6V1320.61Z" fill="#383294"/>
</g>
<path d="M548.79 1321.09H26.9596C22.5496 1321.09 18.6896 1323.61 17.5496 1327.23L-0.66039 1385.05C-2.32039 1390.31 2.34961 1395.48 8.75961 1395.48L556.37 1395.3C562.18 1395.3 566.69 1391 566.05 1386.09L558.48 1328.46C557.93 1324.27 553.76 1321.09 548.8 1321.09H548.79Z" fill="#383294"/>
<path d="M2962.3 448.01H2217.9C2211.61 448.01 2206.1 450.517 2204.47 454.118L2178.48 511.625C2176.12 516.857 2182.77 522 2191.92 522L2973.1 521.821C2981.39 521.821 2987.83 517.544 2986.91 512.659L2976.11 455.331C2975.33 451.163 2969.38 448 2962.3 448V448.01Z" fill="#383294"/>
<path d="M830.439 447.78H107.859C101.749 447.78 96.409 450.3 94.829 453.92L69.609 511.73C67.309 516.99 73.769 522.16 82.649 522.16L840.939 521.98C848.979 521.98 855.239 517.68 854.339 512.77L843.859 455.14C843.099 450.95 837.319 447.77 830.449 447.77L830.439 447.78Z" fill="#383294"/>
<path d="M2351.53 902.97L2265.21 662.75C2264.01 659.4 2261.04 657.19 2257.73 657.19H2121.54C2117.1 657.19 2113.51 661.1 2113.51 665.93V1186.9C2113.51 1192.22 2117.84 1196.3 2122.68 1195.55L2271.82 1172.32C2275.88 1171.69 2278.85 1167.83 2278.71 1163.38L2273.18 982.55C2272.87 972.59 2285.68 969.93 2288.77 979.31L2361.56 1200.37C2362.7 1203.84 2365.73 1206.16 2369.12 1206.16H2432.88C2437.32 1206.16 2440.91 1202.25 2440.91 1197.42V644.07C2440.91 639.24 2437.31 635.33 2432.88 635.33H2378.08C2373.68 635.33 2370.1 639.18 2370.05 643.96L2367.05 899.88C2366.94 909.48 2354.75 911.89 2351.54 902.95L2351.53 902.97Z" fill="#FF551A"/>
<path d="M604.22 694.47V644.16C604.22 636.27 597.82 629.89 589.93 629.89H466.85C463.83 629.89 461.14 631.79 460.12 634.63L434.86 705.46C432.83 711.15 425.09 711.91 421.99 706.72L370.93 621.06C368.9 617.65 364.47 616.55 361.08 618.62L324.21 641.08C320.95 643.07 319.82 647.27 321.67 650.62L400.65 794.25C401.63 796.04 401.81 798.17 401.12 800.09L329.51 1000.89C329.24 1001.66 329.09 1002.47 329.09 1003.29V1075.25C329.09 1079.09 332.13 1082.25 335.97 1082.39L423.71 1085.64C426.63 1085.75 429.31 1084.09 430.49 1081.42C436.83 1067.18 457.85 1019.97 483.23 963.25C485.67 957.79 493.34 957.56 496.09 962.87C510.06 989.82 541.52 1050.49 551.7 1070.12C553.5 1073.6 557.76 1074.96 561.26 1073.19L604.5 1051.34C608.09 1049.53 609.47 1045.11 607.57 1041.57L522.17 883.29C521.11 881.33 521.03 878.99 521.94 876.96C558.05 796.67 593.04 719.64 602.65 700.96C603.69 698.94 604.22 696.73 604.22 694.46V694.47Z" fill="#FF551A"/>
</g>
<path d="M1900.48 1438.03H1793.2C1793.97 1428.89 1793.46 1420.66 1791.66 1413.33C1789.86 1406 1786.77 1399.69 1782.39 1394.42C1778.02 1389.02 1772.3 1384.9 1765.22 1382.07C1758.15 1379.24 1749.72 1377.83 1739.95 1377.83C1721.17 1377.83 1704.38 1382.52 1689.59 1391.91C1674.79 1401.17 1662.51 1414.49 1652.73 1431.85C1642.96 1449.09 1636.01 1469.67 1631.89 1493.59C1628.29 1516.75 1628.16 1535.98 1631.51 1551.29C1634.98 1566.59 1641.73 1578.04 1651.77 1585.63C1661.93 1593.22 1675.12 1597.02 1691.32 1597.02C1702.13 1597.02 1712.03 1595.73 1721.04 1593.16C1730.17 1590.58 1738.27 1586.92 1745.35 1582.16C1752.55 1577.27 1758.66 1571.48 1763.68 1564.79C1768.82 1557.98 1772.75 1550.45 1775.45 1542.22H1883.5C1879.38 1558.94 1872.05 1576.05 1861.5 1593.54C1850.96 1610.91 1837.32 1626.92 1820.6 1641.59C1803.88 1656.12 1784.2 1667.89 1761.56 1676.9C1738.92 1685.9 1713.45 1690.4 1685.15 1690.4C1648.1 1690.4 1616.14 1682.3 1589.25 1666.09C1562.5 1649.88 1543.07 1626.21 1530.98 1595.09C1519.02 1563.96 1516.64 1526.01 1523.84 1481.25C1531.05 1438.03 1545.26 1401.82 1566.48 1372.62C1587.71 1343.42 1613.5 1321.42 1643.86 1306.63C1674.21 1291.84 1706.5 1284.44 1740.72 1284.44C1766.57 1284.44 1789.73 1287.85 1810.18 1294.66C1830.76 1301.48 1848.06 1311.45 1862.08 1324.57C1876.23 1337.56 1886.65 1353.58 1893.34 1372.62C1900.03 1391.65 1902.41 1413.46 1900.48 1438.03ZM1966.48 1685H1850.71L2046.74 1289.84H2193.38L2258.21 1685H2142.44L2103.85 1398.66H2100.77L1966.48 1685ZM1971.11 1529.1H2188.75L2174.86 1609.36H1957.21L1971.11 1529.1ZM2671.18 1289.84L2605.58 1685H2516.05L2408 1477.39H2405.68L2370.95 1685H2263.67L2329.27 1289.84H2420.35L2526.85 1496.68H2529.94L2563.9 1289.84H2671.18ZM2663.86 1376.28L2678.52 1289.84H3021.97L3007.3 1376.28H2888.45L2837.51 1685H2731.77L2782.71 1376.28H2663.86ZM3016.91 1685H2901.14L3097.18 1289.84H3243.82L3308.65 1685H3192.88L3154.29 1398.66H3151.2L3016.91 1685ZM3021.54 1529.1H3239.19L3225.3 1609.36H3007.65L3021.54 1529.1ZM3468.47 1685H3314.11L3379.71 1289.84H3527.89C3568.54 1289.84 3602.5 1298.01 3629.77 1314.35C3657.04 1330.68 3676.4 1354.03 3687.85 1384.39C3699.3 1414.74 3701.55 1450.89 3694.6 1492.82C3687.91 1533.21 3674.34 1567.75 3653.89 1596.44C3633.57 1625.12 3607.58 1647.05 3575.94 1662.23C3544.42 1677.41 3508.6 1685 3468.47 1685ZM3436.44 1593.93H3475.41C3494.96 1593.93 3512.39 1590.52 3527.7 1583.7C3543.14 1576.76 3556 1565.18 3566.29 1548.97C3576.71 1532.63 3584.24 1510.32 3588.87 1482.02C3593.24 1455.26 3593.11 1434.62 3588.48 1420.08C3583.85 1405.42 3575.04 1395.26 3562.05 1389.6C3549.05 1383.81 3532.27 1380.91 3511.69 1380.91H3471.94L3436.44 1593.93ZM3757.7 1685H3641.93L3837.97 1289.84H3984.61L4049.44 1685H3933.67L3895.08 1398.66H3892L3757.7 1685ZM3762.33 1529.1H3979.98L3966.09 1609.36H3748.44L3762.33 1529.1Z" fill="#FFB010"/>
<path d="M3405.62 117.859C3383.36 164.506 3380.1 201.272 3388.88 252.442C3338.91 250.393 3293.23 244.318 3244.68 231.383C3243.9 283.052 3246.32 334.207 3249.83 385.709C3250.33 393.26 3250.82 400.811 3251.32 408.363C3252.51 426.589 3253.74 444.813 3254.98 463.037C3281.26 457.913 3306.02 449.659 3331.42 441.134C3346.36 437.072 3358.1 435.806 3373.43 436.713C3374.08 439.963 3374.73 443.214 3375.4 446.564C3385.39 481.861 3400.31 496.306 3430.4 514.04C3435.24 516.656 3435.24 516.656 3440.17 519.325C3465.07 533.379 3472.8 546.295 3481.58 573.599C3483.2 578.14 3484.81 582.68 3486.47 587.358C3497.39 628.185 3498.51 667.671 3498.64 709.828C3498.67 715.422 3498.7 721.017 3498.73 726.781C3498.06 804.402 3483.24 879.76 3468.71 955.631C3448.16 1056.08 3448.16 1056.08 3440.38 1158C3561.05 1158 3681.71 1158 3806.04 1158C3806.04 1044.72 3788.91 936.453 3768.62 825.388C3754.3 746.41 3747.07 671.437 3749.1 591.055C3749.5 574.868 3749.11 561.385 3746.49 545.331C3743.78 528.663 3746.25 517.396 3750.49 501.125C3751.9 495.573 3753.32 490.022 3754.77 484.302C3756.29 478.588 3757.8 472.873 3759.37 466.986C3762.32 455.553 3765.26 444.119 3768.2 432.682C3769.52 427.644 3770.85 422.607 3772.22 417.417C3775.54 405.526 3775.54 405.526 3775.14 394.594C3781.32 394.336 3787.5 394.078 3793.87 393.812C3841.98 391.67 3890.02 388.846 3938.01 384.722C3942.67 384.373 3947.34 384.025 3952.15 383.665C3956.47 383.268 3960.79 382.87 3965.25 382.46C3970.98 381.972 3970.98 381.972 3976.83 381.475C3988.37 379.347 3988.37 379.347 3996.59 363.004C3997.6 348.954 3998.03 335.578 3997.88 321.544C3997.92 317.818 3997.96 314.092 3998 310.253C3997.92 287.768 3997.63 264.037 3981.14 247.177C3965.73 246.594 3950.41 246.326 3934.99 246.252C3925.46 246.13 3915.92 246.003 3906.38 245.871C3891.28 245.686 3876.19 245.532 3861.08 245.461C3846.56 245.38 3832.03 245.168 3817.51 244.936C3812.98 244.946 3808.46 244.956 3803.8 244.966C3772.27 244.316 3772.27 244.316 3760.22 231.647C3758.35 228.085 3756.47 224.523 3754.54 220.853C3739.48 213.181 3739.48 213.181 3722.35 207.362C3704.22 200.706 3686.93 194.205 3669.56 185.644C3651.5 178.721 3636.5 176.682 3617.42 174.456C3586.68 170.4 3586.68 170.4 3577.08 160.348C3575.41 157.403 3573.75 154.457 3572.03 151.422C3565.5 144.093 3565.5 144.093 3558.83 136.615C3540.33 136.873 3522.49 139.366 3504.13 141.695C3486.73 141.88 3486.73 141.88 3475.29 135.319C3469.56 129.545 3463.96 123.64 3458.51 117.591C3450.01 108.339 3450.01 108.339 3431.37 107C3414.92 108.823 3414.92 108.822 3405.62 117.859ZM3063.14 264.617C3039.67 301.457 3045.03 359.392 3051.71 401.175C3057.69 428.904 3057.69 428.905 3073.86 451.068C3111.99 473.963 3160.88 469.531 3203.48 468.302C3204 412.845 3203.72 357.54 3201.22 302.129C3201.02 297.404 3200.82 292.68 3200.61 287.812C3200.4 283.408 3200.18 279.005 3199.96 274.468C3199.77 270.589 3199.58 266.71 3199.38 262.713C3198.58 251.316 3198.58 251.316 3193.18 236.648C3148.49 234.324 3100.48 237.455 3063.14 264.617Z" fill="#FFB010"/>
<defs>
<clipPath id="clip0_106_2881">
<rect width="3569.23" height="1395.48" fill="white"/>
</clipPath>
<clipPath id="clip1_106_2881">
<rect width="651" height="143" fill="white" transform="translate(769 1252)"/>
</clipPath>
</defs>
</svg>
