<svg width="4182" height="1816" viewBox="0 0 4182 1816" fill="none" xmlns="http://www.w3.org/2000/svg">
<g clip-path="url(#clip0_21_13614)">
<path d="M1288.87 270.97L1280.67 270.32C1279.25 270.21 1278.14 269.06 1278.09 267.64L1272.62 133.5C1272.55 131.86 1271.09 130.62 1269.46 130.83L1252.78 132.94C1251.38 133.12 1250.33 134.31 1250.33 135.72V289.25C1250.33 290.44 1251.08 291.5 1252.2 291.89L1278.98 301.41C1279.31 301.53 1279.66 301.58 1280 301.57L1349.33 299.5C1350.85 299.45 1352.05 298.21 1352.05 296.7V135.63C1352.05 134.26 1351.06 133.09 1349.71 132.86L1304.27 125.28C1302.63 125.01 1301.12 126.21 1301.01 127.87L1291.9 268.36C1291.8 269.92 1290.44 271.1 1288.88 270.98L1288.87 270.97Z" fill="white"/>
<path d="M1302.26 555.78L1290.42 554.85C1288.38 554.69 1286.77 553.03 1286.69 550.98L1278.8 357.34C1278.7 354.97 1276.6 353.19 1274.24 353.49L1250.16 356.54C1248.14 356.8 1246.62 358.52 1246.62 360.56V582.19C1246.62 583.9 1247.7 585.43 1249.31 586.01L1287.96 599.75C1288.43 599.92 1288.93 600 1289.44 599.98L1389.53 597C1391.72 596.93 1393.46 595.14 1393.46 592.95V360.43C1393.46 358.45 1392.03 356.76 1390.08 356.43L1324.49 345.49C1322.12 345.1 1319.94 346.83 1319.78 349.22L1306.62 552.02C1306.47 554.27 1304.51 555.97 1302.26 555.8V555.78Z" fill="white"/>
<path d="M1447.85 260.93L1433.52 259.8C1431.05 259.6 1429.11 257.59 1429.01 255.11L1419.46 20.7998C1419.34 17.9298 1416.8 15.7798 1413.95 16.1398L1384.81 19.8298C1382.36 20.1398 1380.52 22.2198 1380.52 24.6898V292.86C1380.52 294.93 1381.83 296.78 1383.78 297.48L1430.55 314.1C1431.12 314.3 1431.73 314.4 1432.34 314.38L1553.44 310.77C1556.09 310.69 1558.2 308.52 1558.2 305.87V24.5198C1558.2 22.1198 1556.47 20.0798 1554.1 19.6898L1474.74 6.44983C1471.88 5.96983 1469.23 8.06983 1469.04 10.9698L1453.12 256.36C1452.94 259.09 1450.57 261.14 1447.84 260.93H1447.85Z" fill="white"/>
<path d="M1071.35 598.03L1139.93 684.02H1269.69C1273.21 681.12 1273.63 675.89 1270.63 672.47L1214.46 608.46C1213.17 606.99 1212.46 605.1 1212.46 603.14V194.91C1212.46 191.43 1210.23 188.34 1206.92 187.25L1096.19 150.66C1095.03 150.28 1093.81 150.16 1092.6 150.32L918.65 173.35C914.64 173.88 911.64 177.3 911.64 181.35V573.61C911.64 577.78 914.81 581.26 918.96 581.64L1066.02 595.29C1068.08 595.48 1069.99 596.46 1071.35 598.02M1130.73 245.82L1139.92 511.89C1140.08 516.46 1136.41 520.25 1131.83 520.24L1118.08 520.2L1117.94 519.93H1082.04C1077.4 519.93 1073.72 516.03 1073.98 511.41L1088.9 247.51C1089.13 243.46 1092.33 240.21 1096.37 239.92L1122.07 238.05C1126.63 237.72 1130.56 241.25 1130.72 245.82H1130.73Z" fill="white"/>
<path d="M1635.14 160.83L1661.76 164.38C1663.98 164.68 1665.6 166.61 1665.51 168.84L1660.91 284.72C1660.81 287.18 1662.78 289.22 1665.24 289.22H1743.72C1746.11 289.22 1748.05 287.28 1748.05 284.89V18.3098C1748.05 15.7398 1745.82 13.7298 1743.26 14.0098L1675.09 21.2498C1672.95 21.4798 1671.31 23.2398 1671.22 25.3798L1667.61 116.28C1667.52 118.5 1665.77 120.29 1663.55 120.43L1635.43 122.17C1632.92 122.33 1630.8 120.31 1630.83 117.8L1632.24 4.38977C1632.27 1.97977 1630.32 0.00976562 1627.91 0.00976562H1589.08C1586.69 0.00976562 1584.75 1.94977 1584.75 4.33977V269.72C1584.75 272.02 1586.55 273.92 1588.84 274.04L1624.33 276C1626.79 276.14 1628.87 274.19 1628.9 271.73L1630.23 165.07C1630.26 162.47 1632.56 160.49 1635.13 160.83H1635.14Z" fill="white"/>
<path d="M1420.64 359.25V599.79C1420.64 601.82 1423.65 603.6 1427.97 604.13L1497.01 612.53C1503.3 613.29 1509.47 611.14 1509.47 608.19L1509.26 355.77C1509.26 353.09 1504.13 351.01 1498.27 351.31L1429.44 354.8C1424.43 355.05 1420.64 356.98 1420.64 359.26V359.25Z" fill="white"/>
<path d="M1692.52 488.82L1638.01 349.42C1637.25 347.48 1635.37 346.2 1633.29 346.2H1547.3C1544.5 346.2 1542.23 348.47 1542.23 351.27V653.6C1542.23 656.69 1544.96 659.06 1548.02 658.62L1642.19 645.14C1644.75 644.77 1646.63 642.54 1646.54 639.95L1643.05 535.01C1642.86 529.23 1650.94 527.68 1652.89 533.13L1698.85 661.42C1699.57 663.44 1701.48 664.78 1703.62 664.78H1743.88C1746.68 664.78 1748.95 662.51 1748.95 659.71V338.59C1748.95 335.79 1746.68 333.52 1743.88 333.52H1709.28C1706.5 333.52 1704.24 335.75 1704.21 338.53L1702.32 487.05C1702.25 492.62 1694.55 494.02 1692.53 488.83L1692.52 488.82Z" fill="white"/>
<path d="M1789.92 161.79L1781.69 629.5C1781.6 634.45 1785.68 638.469 1790.63 638.31L1822.64 637.289C1827.2 637.139 1830.87 633.49 1831.02 628.93L1834.3 533.52C1834.45 529.1 1837.91 525.5 1842.32 525.18L1917.28 519.64C1921.14 519.35 1924.72 521.66 1926.05 525.29L1960.93 620.21C1962.58 624.7 1967.56 627.009 1972.06 625.349L2127.03 568.31C2131.42 566.69 2133.73 561.89 2132.26 557.45L1986.16 116.54C1984.75 112.27 1980.3 109.8 1975.93 110.84L1796.56 153.52C1792.71 154.44 1789.97 157.84 1789.9 161.8L1789.92 161.79ZM1837.15 450.92L1840.9 341.88C1841.23 332.37 1854.41 330.26 1857.69 339.19L1895.43 441.9C1897.32 447.04 1894.02 452.63 1888.6 453.45L1847.11 459.78C1841.74 460.6 1836.96 456.34 1837.14 450.92H1837.15Z" fill="white"/>
<path d="M2497.16 647.6V1034.77C2497.16 1039.13 2500.29 1042.86 2504.59 1043.62L2699.11 1078.03C2699.63 1078.12 2700.15 1078.17 2700.68 1078.17H2879C2883.97 1078.17 2887.99 1074.14 2887.99 1069.18V910.11C2887.99 905.33 2884.25 901.39 2879.48 901.13L2832.91 898.61C2827.76 898.33 2823.43 902.43 2823.43 907.59V975.39C2823.43 979.69 2820.39 983.39 2816.17 984.21L2716.34 1003.77C2710.54 1004.91 2705.23 1000.23 2705.64 994.33L2725.81 700.27C2726.1 695.98 2729.39 692.5 2733.66 691.96L2813.32 681.95C2818.69 681.27 2823.43 685.46 2823.43 690.87V771.66C2823.43 776.31 2826.97 780.19 2831.6 780.61L2878.17 784.88C2883.44 785.36 2887.98 781.22 2887.98 775.93V640.53C2887.98 636.24 2884.94 632.54 2880.73 631.71L2734.08 602.73C2733.04 602.52 2731.97 602.5 2730.92 602.67L2504.73 638.71C2500.36 639.41 2497.15 643.17 2497.15 647.59L2497.16 647.6Z" fill="#FF551A"/>
<path d="M269.14 918.31L136.31 899.78C132.94 899.31 130.49 896.35 130.65 892.95L131.98 865.64C132.17 861.75 135.69 858.87 139.54 859.46L199.69 868.67C203.55 869.26 207.08 866.37 207.25 862.46L209.01 822.65C209.17 818.99 206.31 815.9 202.64 815.79L141.2 813.95C137.52 813.84 134.65 810.73 134.83 807.06L135.75 788.14C135.93 784.5 139.03 781.7 142.66 781.9L283.8 789.32C287.56 789.52 290.72 786.52 290.72 782.76V663.91C290.72 660.31 287.82 657.38 284.22 657.34L85.8199 655.15C82.1599 655.11 79.1699 658.06 79.1699 661.72V1010.61C79.1699 1014.16 81.9899 1017.07 85.5399 1017.18L268.02 1022.86C271.73 1022.98 274.8 1020 274.8 1016.29V924.82C274.8 921.54 272.38 918.76 269.13 918.31H269.14Z" fill="#FF551A"/>
<path d="M1341.11 1026L1192.78 1005.31C1189.02 1004.79 1186.28 1001.48 1186.46 997.68L1187.95 967.19C1188.16 962.84 1192.09 959.63 1196.39 960.29L1263.55 970.57C1267.87 971.23 1271.8 968 1271.99 963.64L1273.96 919.18C1274.14 915.09 1270.94 911.64 1266.85 911.52L1198.25 909.47C1194.14 909.35 1190.94 905.88 1191.14 901.77L1192.17 880.64C1192.37 876.58 1195.83 873.45 1199.89 873.67L1357.49 881.96C1361.69 882.18 1365.22 878.84 1365.22 874.63V741.91C1365.22 737.89 1361.98 734.61 1357.96 734.57L1136.42 732.13C1132.33 732.09 1129 735.38 1129 739.47V1129.06C1129 1133.03 1132.15 1136.27 1136.11 1136.4L1339.87 1142.75C1344.01 1142.88 1347.44 1139.56 1347.44 1135.41V1033.27C1347.44 1029.61 1344.74 1026.51 1341.11 1026Z" fill="#FF551A"/>
<path d="M2052.48 1076.76L1910.97 1053.83C1907.38 1053.25 1904.77 1049.58 1904.94 1045.37L1906.36 1011.57C1906.56 1006.75 1910.31 1003.19 1914.41 1003.92L1978.49 1015.31C1982.61 1016.04 1986.36 1012.46 1986.55 1007.63L1988.43 958.35C1988.6 953.81 1985.55 949.99 1981.64 949.86L1916.19 947.59C1912.27 947.45 1909.21 943.61 1909.4 939.06L1910.38 915.64C1910.57 911.14 1913.87 907.669 1917.74 907.91L2068.1 917.1C2072.11 917.34 2075.47 913.639 2075.47 908.969V761.85C2075.47 757.39 2072.38 753.76 2068.54 753.71L1857.18 751C1853.28 750.95 1850.1 754.61 1850.1 759.14V1191C1850.1 1195.4 1853.1 1199 1856.89 1199.13L2051.29 1206.17C2055.24 1206.31 2058.51 1202.63 2058.51 1198.04V1084.81C2058.51 1080.75 2055.93 1077.31 2052.47 1076.75L2052.48 1076.76Z" fill="#FF551A"/>
<path d="M650.38 653.92V1278.49C650.38 1284.64 655.62 1289.49 661.75 1289.01L724.44 1284.13C729.82 1283.71 734.02 1279.3 734.17 1273.9L737.23 1163.18C737.38 1157.85 741.47 1153.47 746.78 1152.96L948.68 1133.66C950.31 1133.5 951.88 1132.97 953.27 1132.1L1085.97 1049.15C1089.06 1047.22 1090.93 1043.84 1090.93 1040.2V747.08C1090.93 744.04 1089.62 741.16 1087.34 739.15L1005.68 667.39C1003.93 665.85 1001.71 664.93 999.38 664.78L661.59 643.36C655.51 642.97 650.37 647.8 650.37 653.89L650.38 653.92ZM822.38 1025.75L752.33 1029.38C746.18 1029.7 741.06 1024.7 741.23 1018.55L747.22 801.58C747.38 795.63 752.43 790.99 758.37 791.33L854.51 796.83C860.73 797.19 865.29 802.82 864.34 808.98L832.26 1016.82C831.5 1021.76 827.37 1025.49 822.37 1025.75H822.38Z" fill="#FF551A"/>
<path d="M1399.43 739.93V1134.51C1399.43 1137.96 1402.22 1140.75 1405.67 1140.75H1500.83C1504.13 1140.75 1506.86 1138.18 1507.06 1134.89L1513.54 1028.29C1513.74 1025 1516.47 1022.43 1519.77 1022.43H1542.47C1545.92 1022.43 1548.71 1025.22 1548.71 1028.67V1149.63C1548.71 1153.32 1551.89 1156.2 1555.56 1155.84L1638.9 1147.68C1642.09 1147.37 1644.53 1144.68 1644.53 1141.47V1059.79C1644.53 1058.49 1644.12 1057.22 1643.36 1056.16L1617.04 1019.38C1615.35 1017.01 1615.51 1013.79 1617.45 1011.61L1652.27 972.33C1653.28 971.19 1653.84 969.72 1653.84 968.19V791.01C1653.84 789.49 1653.29 788.02 1652.28 786.88L1600.9 728.65C1599.66 727.25 1597.86 726.469 1595.99 726.539L1405.45 733.69C1402.1 733.82 1399.45 736.569 1399.45 739.92L1399.43 739.93ZM1588.39 967.28L1523.94 968.849C1520.29 968.939 1517.34 965.879 1517.56 962.229L1527.88 792.57C1528.08 789.33 1530.72 786.79 1533.96 786.71L1576.13 785.74C1579.46 785.66 1582.26 788.209 1582.5 791.539L1594.47 960.599C1594.72 964.149 1591.96 967.19 1588.4 967.28H1588.39Z" fill="#FF551A"/>
<path d="M1695.65 787.3V1184.87C1695.65 1188.23 1699.91 1191.17 1706.02 1192.04L1803.68 1205.92C1812.57 1207.18 1821.3 1203.63 1821.3 1198.75L1821 781.54C1821 777.11 1813.74 773.67 1805.45 774.16L1708.09 779.93C1701 780.35 1695.65 783.53 1695.65 787.31V787.3Z" fill="#FF551A"/>
<path d="M1451.54 1320.61H1037.95L933.332 1252L792.998 1320.61C787.53 1320.61 782.745 1323.13 781.331 1326.75L770.418 1384.57C768.363 1389.83 774.145 1395 782.09 1395L1460.92 1394.82C1468.13 1394.82 1473.72 1390.52 1472.92 1385.61L1463.54 1327.97C1462.86 1323.78 1457.69 1320.6 1451.54 1320.6V1320.61Z" fill="#383294"/>
<path d="M549.79 1321.09H27.9596C23.5496 1321.09 19.6896 1323.61 18.5496 1327.23L0.33961 1385.05C-1.32039 1390.31 3.34961 1395.48 9.75961 1395.48L557.37 1395.3C563.18 1395.3 567.69 1391 567.05 1386.09L559.48 1328.46C558.93 1324.27 554.76 1321.09 549.8 1321.09H549.79Z" fill="#383294"/>
<path d="M3106.78 448.01H2226.19C2218.75 448.01 2212.24 450.517 2210.31 454.118L2179.57 511.625C2176.77 516.857 2184.65 522 2195.46 522L3119.56 521.821C3129.37 521.821 3136.98 517.544 3135.9 512.659L3123.12 455.331C3122.19 451.163 3115.15 448 3106.78 448V448.01Z" fill="#383294"/>
<path d="M831.44 447.78H108.86C102.75 447.78 97.41 450.3 95.83 453.92L70.61 511.73C68.31 516.99 74.77 522.16 83.65 522.16L841.94 521.98C849.98 521.98 856.24 517.68 855.34 512.77L844.86 455.14C844.1 450.95 838.32 447.77 831.45 447.77L831.44 447.78Z" fill="#383294"/>
<path d="M1939.33 651.27L1875.03 659.84C1870.35 660.46 1866.87 661.4 1866.94 662.02L1874.66 727.24C1874.73 727.79 1877.6 727.939 1881.66 727.599L1946.54 722.229C1952.45 721.739 1958.15 720.469 1958.06 719.669" fill="#FF551A"/>
<path d="M2928.16 650.21V1080.84C2928.16 1084.48 2933.55 1087.67 2941.29 1088.61L3064.89 1103.64C3076.14 1105.01 3087.19 1101.16 3087.19 1095.87L3086.81 643.97C3086.81 639.18 3077.62 635.45 3067.13 635.98L2943.91 642.23C2934.94 642.68 2928.16 646.13 2928.16 650.22V650.21Z" fill="#FF551A"/>
<path d="M2352.53 902.97L2266.21 662.75C2265.01 659.4 2262.04 657.19 2258.73 657.19H2122.54C2118.1 657.19 2114.51 661.1 2114.51 665.93V1186.9C2114.51 1192.22 2118.84 1196.3 2123.68 1195.55L2272.82 1172.32C2276.88 1171.69 2279.85 1167.83 2279.71 1163.38L2274.18 982.55C2273.87 972.59 2286.68 969.93 2289.77 979.31L2362.56 1200.37C2363.7 1203.84 2366.73 1206.16 2370.12 1206.16H2433.88C2438.32 1206.16 2441.91 1202.25 2441.91 1197.42V644.07C2441.91 639.24 2438.31 635.33 2433.88 635.33H2379.08C2374.68 635.33 2371.1 639.18 2371.05 643.96L2368.05 899.88C2367.94 909.48 2355.75 911.89 2352.54 902.95L2352.53 902.97Z" fill="#FF551A"/>
<path d="M3146.08 650.09L3135.92 1227.44C3135.81 1233.55 3140.84 1238.52 3146.96 1238.32L3186.47 1237.06C3192.1 1236.88 3196.62 1232.37 3196.82 1226.74L3200.87 1108.96C3201.06 1103.5 3205.33 1099.06 3210.77 1098.66L3303.31 1091.82C3308.07 1091.47 3312.49 1094.32 3314.14 1098.8L3357.19 1215.98C3359.23 1221.53 3365.38 1224.37 3370.93 1222.33L3562.23 1151.92C3567.65 1149.93 3570.5 1144 3568.69 1138.52L3388.34 594.25C3386.59 588.98 3381.11 585.92 3375.71 587.21L3154.29 639.89C3149.54 641.02 3146.16 645.23 3146.07 650.11L3146.08 650.09ZM3204.38 1007L3209.01 872.4C3209.41 860.66 3225.69 858.06 3229.74 869.08L3276.32 995.86C3278.65 1002.21 3274.58 1009.1 3267.89 1010.12L3216.68 1017.93C3210.06 1018.94 3204.15 1013.68 3204.38 1006.99V1007Z" fill="#FF551A"/>
<path d="M605.22 694.47V644.16C605.22 636.27 598.82 629.89 590.93 629.89H467.85C464.83 629.89 462.14 631.79 461.12 634.63L435.86 705.46C433.83 711.15 426.09 711.91 422.99 706.72L371.93 621.06C369.9 617.65 365.47 616.55 362.08 618.62L325.21 641.08C321.95 643.07 320.82 647.27 322.67 650.62L401.65 794.25C402.63 796.04 402.81 798.17 402.12 800.09L330.51 1000.89C330.24 1001.66 330.09 1002.47 330.09 1003.29V1075.25C330.09 1079.09 333.13 1082.25 336.97 1082.39L424.71 1085.64C427.63 1085.75 430.31 1084.09 431.49 1081.42C437.83 1067.18 458.85 1019.97 484.23 963.25C486.67 957.79 494.34 957.56 497.09 962.87C511.06 989.82 542.52 1050.49 552.7 1070.12C554.5 1073.6 558.76 1074.96 562.26 1073.19L605.5 1051.34C609.09 1049.53 610.47 1045.11 608.57 1041.57L523.17 883.29C522.11 881.33 522.03 878.99 522.94 876.96C559.05 796.67 594.04 719.64 603.65 700.96C604.69 698.94 605.22 696.73 605.22 694.46V694.47Z" fill="#FF551A"/>
</g>
<path d="M1900.48 1438.03H1793.2C1793.97 1428.89 1793.46 1420.66 1791.66 1413.33C1789.86 1406 1786.77 1399.69 1782.39 1394.42C1778.02 1389.02 1772.3 1384.9 1765.22 1382.07C1758.15 1379.24 1749.72 1377.83 1739.95 1377.83C1721.17 1377.83 1704.38 1382.52 1689.59 1391.91C1674.79 1401.17 1662.51 1414.49 1652.73 1431.85C1642.96 1449.09 1636.01 1469.67 1631.89 1493.59C1628.29 1516.75 1628.16 1535.98 1631.51 1551.29C1634.98 1566.59 1641.73 1578.04 1651.77 1585.63C1661.93 1593.22 1675.12 1597.02 1691.32 1597.02C1702.13 1597.02 1712.03 1595.73 1721.04 1593.16C1730.17 1590.58 1738.27 1586.92 1745.35 1582.16C1752.55 1577.27 1758.66 1571.48 1763.68 1564.79C1768.82 1557.98 1772.75 1550.45 1775.45 1542.22H1883.5C1879.38 1558.94 1872.05 1576.05 1861.5 1593.54C1850.96 1610.91 1837.32 1626.92 1820.6 1641.59C1803.88 1656.12 1784.2 1667.89 1761.56 1676.9C1738.92 1685.9 1713.45 1690.4 1685.15 1690.4C1648.1 1690.4 1616.14 1682.3 1589.25 1666.09C1562.5 1649.88 1543.07 1626.21 1530.98 1595.09C1519.02 1563.96 1516.64 1526.01 1523.84 1481.25C1531.05 1438.03 1545.26 1401.82 1566.48 1372.62C1587.71 1343.42 1613.5 1321.42 1643.86 1306.63C1674.21 1291.84 1706.5 1284.44 1740.72 1284.44C1766.57 1284.44 1789.73 1287.85 1810.18 1294.66C1830.76 1301.48 1848.06 1311.45 1862.08 1324.57C1876.23 1337.56 1886.65 1353.58 1893.34 1372.62C1900.03 1391.65 1902.41 1413.46 1900.48 1438.03ZM1966.48 1685H1850.71L2046.74 1289.84H2193.38L2258.21 1685H2142.44L2103.85 1398.66H2100.77L1966.48 1685ZM1971.11 1529.1H2188.75L2174.86 1609.36H1957.21L1971.11 1529.1ZM2671.18 1289.84L2605.58 1685H2516.05L2408 1477.39H2405.68L2370.95 1685H2263.67L2329.27 1289.84H2420.35L2526.85 1496.68H2529.94L2563.9 1289.84H2671.18ZM2663.86 1376.28L2678.52 1289.84H3021.97L3007.3 1376.28H2888.45L2837.51 1685H2731.77L2782.71 1376.28H2663.86ZM3016.91 1685H2901.14L3097.18 1289.84H3243.82L3308.65 1685H3192.88L3154.29 1398.66H3151.2L3016.91 1685ZM3021.54 1529.1H3239.19L3225.3 1609.36H3007.65L3021.54 1529.1ZM3468.47 1685H3314.11L3379.71 1289.84H3527.89C3568.54 1289.84 3602.5 1298.01 3629.77 1314.35C3657.04 1330.68 3676.4 1354.03 3687.85 1384.39C3699.3 1414.74 3701.55 1450.89 3694.6 1492.82C3687.91 1533.21 3674.34 1567.75 3653.89 1596.44C3633.57 1625.12 3607.58 1647.05 3575.94 1662.23C3544.42 1677.41 3508.6 1685 3468.47 1685ZM3436.44 1593.93H3475.41C3494.96 1593.93 3512.39 1590.52 3527.7 1583.7C3543.14 1576.76 3556 1565.18 3566.29 1548.97C3576.71 1532.63 3584.24 1510.32 3588.87 1482.02C3593.24 1455.26 3593.11 1434.62 3588.48 1420.08C3583.85 1405.42 3575.04 1395.26 3562.05 1389.6C3549.05 1383.81 3532.27 1380.91 3511.69 1380.91H3471.94L3436.44 1593.93ZM3757.7 1685H3641.93L3837.97 1289.84H3984.61L4049.44 1685H3933.67L3895.08 1398.66H3892L3757.7 1685ZM3762.33 1529.1H3979.98L3966.09 1609.36H3748.44L3762.33 1529.1Z" fill="#FFB010"/>
<path d="M3589.62 117.859C3567.36 164.506 3564.1 201.272 3572.88 252.442C3522.91 250.393 3477.23 244.318 3428.68 231.383C3427.9 283.052 3430.32 334.207 3433.83 385.709C3434.33 393.26 3434.82 400.811 3435.32 408.363C3436.51 426.589 3437.74 444.813 3438.98 463.037C3465.26 457.913 3490.02 449.659 3515.42 441.134C3530.36 437.072 3542.1 435.806 3557.43 436.713C3558.08 439.963 3558.73 443.214 3559.4 446.564C3569.39 481.861 3584.31 496.306 3614.4 514.04C3619.24 516.656 3619.24 516.656 3624.17 519.325C3649.07 533.379 3656.8 546.295 3665.58 573.599C3667.2 578.14 3668.81 582.68 3670.47 587.358C3681.39 628.185 3682.51 667.671 3682.64 709.828C3682.67 715.422 3682.7 721.017 3682.73 726.781C3682.06 804.402 3667.24 879.76 3652.71 955.631C3632.16 1056.08 3632.16 1056.08 3624.38 1158C3745.05 1158 3865.71 1158 3990.04 1158C3990.04 1044.72 3972.91 936.453 3952.62 825.388C3938.3 746.41 3931.07 671.437 3933.1 591.055C3933.5 574.868 3933.11 561.385 3930.49 545.331C3927.78 528.663 3930.25 517.396 3934.49 501.125C3935.9 495.573 3937.32 490.022 3938.77 484.302C3940.29 478.588 3941.8 472.873 3943.37 466.986C3946.32 455.553 3949.26 444.119 3952.2 432.682C3953.52 427.644 3954.85 422.607 3956.22 417.417C3959.54 405.526 3959.54 405.526 3959.14 394.594C3965.32 394.336 3971.5 394.078 3977.87 393.812C4025.98 391.67 4074.02 388.846 4122.01 384.722C4126.67 384.373 4131.34 384.025 4136.15 383.665C4140.47 383.268 4144.79 382.87 4149.25 382.46C4154.98 381.972 4154.98 381.972 4160.83 381.475C4172.37 379.347 4172.37 379.347 4180.59 363.004C4181.6 348.954 4182.03 335.578 4181.88 321.544C4181.92 317.818 4181.96 314.092 4182 310.253C4181.92 287.768 4181.63 264.037 4165.14 247.177C4149.73 246.594 4134.41 246.326 4118.99 246.252C4109.46 246.13 4099.92 246.003 4090.38 245.871C4075.28 245.686 4060.19 245.532 4045.08 245.461C4030.56 245.38 4016.03 245.168 4001.51 244.936C3996.98 244.946 3992.46 244.956 3987.8 244.966C3956.27 244.316 3956.27 244.316 3944.22 231.647C3942.35 228.085 3940.47 224.523 3938.54 220.853C3923.48 213.181 3923.48 213.181 3906.35 207.362C3888.22 200.706 3870.93 194.205 3853.56 185.644C3835.5 178.721 3820.5 176.682 3801.42 174.456C3770.68 170.4 3770.68 170.4 3761.08 160.348C3759.41 157.403 3757.75 154.457 3756.03 151.422C3749.5 144.093 3749.5 144.093 3742.83 136.615C3724.33 136.873 3706.49 139.366 3688.13 141.695C3670.73 141.88 3670.73 141.88 3659.29 135.319C3653.56 129.545 3647.96 123.64 3642.51 117.591C3634.01 108.339 3634.01 108.339 3615.37 107C3598.92 108.823 3598.92 108.822 3589.62 117.859ZM3247.14 264.617C3223.67 301.457 3229.03 359.392 3235.71 401.175C3241.69 428.905 3241.69 428.905 3257.86 451.068C3295.99 473.963 3344.88 469.531 3387.48 468.302C3388 412.845 3387.72 357.54 3385.22 302.129C3385.02 297.404 3384.82 292.68 3384.61 287.812C3384.4 283.408 3384.18 279.005 3383.96 274.468C3383.77 270.589 3383.58 266.71 3383.38 262.714C3382.58 251.316 3382.58 251.316 3377.18 236.648C3332.49 234.324 3284.48 237.455 3247.14 264.617Z" fill="#FFB010"/>
<defs>
<clipPath id="clip0_21_13614">
<rect width="3569.23" height="1395.48" fill="white"/>
</clipPath>
</defs>
</svg>
