<svg width="275" height="111" viewBox="0 0 275 111" fill="none" xmlns="http://www.w3.org/2000/svg">
<path d="M84.6358 17.8024L84.0973 17.7597C84.0041 17.7525 83.9312 17.677 83.9279 17.5837L83.5687 8.77541C83.5641 8.66772 83.4682 8.5863 83.3612 8.60009L82.2659 8.73864C82.174 8.75046 82.105 8.8286 82.105 8.92119V19.0028C82.105 19.0809 82.1543 19.1505 82.2278 19.1761L83.9863 19.8013C84.008 19.8091 84.031 19.8124 84.0533 19.8118L88.6059 19.6758C88.7057 19.6726 88.7845 19.5911 88.7845 19.492V8.91528C88.7845 8.82532 88.7195 8.74849 88.6308 8.73339L85.647 8.23564C85.5393 8.21792 85.4402 8.29671 85.4329 8.40572L84.8347 17.631C84.8282 17.7335 84.7389 17.8109 84.6364 17.8031L84.6358 17.8024Z" fill="white"/>
<path d="M85.515 36.5045L84.7375 36.4435C84.6036 36.433 84.4979 36.3239 84.4926 36.1893L83.9745 23.4739C83.9679 23.3183 83.83 23.2014 83.6751 23.2211L82.0939 23.4214C81.9612 23.4385 81.8614 23.5514 81.8614 23.6854V38.2387C81.8614 38.351 81.9323 38.4515 82.038 38.4896L84.576 39.3918C84.6069 39.403 84.6397 39.4082 84.6732 39.4069L91.2456 39.2113C91.3894 39.2067 91.5037 39.0891 91.5037 38.9453V23.6768C91.5037 23.5468 91.4098 23.4358 91.2817 23.4142L86.9748 22.6958C86.8191 22.6702 86.676 22.7838 86.6655 22.9407L85.8013 36.2576C85.7915 36.4054 85.6628 36.517 85.515 36.5058V36.5045Z" fill="white"/>
<path d="M95.0752 17.1431L94.1342 17.0689C93.972 17.0558 93.8446 16.9238 93.838 16.761L93.2109 1.37495C93.2031 1.18649 93.0363 1.04531 92.8491 1.06895L90.9356 1.31125C90.7748 1.33161 90.6539 1.46819 90.6539 1.63039V19.2398C90.6539 19.3758 90.74 19.4972 90.868 19.5432L93.9392 20.6346C93.9766 20.6477 94.0166 20.6543 94.0567 20.6529L102.009 20.4159C102.183 20.4106 102.321 20.2681 102.321 20.0941V1.61922C102.321 1.46163 102.208 1.32767 102.052 1.30206L96.8409 0.432654C96.6531 0.401135 96.4791 0.539032 96.4666 0.729461L95.4212 16.843C95.4094 17.0223 95.2538 17.1569 95.0745 17.1431H95.0752Z" fill="white"/>
<path d="M70.3522 39.2789L74.8556 44.9254H83.3763C83.6074 44.735 83.635 44.3916 83.438 44.167L79.7496 39.9638C79.6649 39.8672 79.6182 39.7431 79.6182 39.6144V12.8079C79.6182 12.5794 79.4718 12.3765 79.2545 12.3049L71.9833 9.90223C71.9072 9.87728 71.8271 9.8694 71.7476 9.87991L60.3252 11.3922C60.0618 11.427 59.8648 11.6516 59.8648 11.9175V37.6753C59.8648 37.9492 60.073 38.1777 60.3455 38.2026L70.0022 39.099C70.1375 39.1114 70.2629 39.1758 70.3522 39.2782M74.2514 16.1509L74.8549 33.6225C74.8654 33.9226 74.6244 34.1714 74.3237 34.1708L73.4208 34.1682L73.4116 34.1504H71.0542C70.7495 34.1504 70.5079 33.8943 70.5249 33.591L71.5047 16.2619C71.5198 15.996 71.7299 15.7826 71.9952 15.7635L73.6828 15.6407C73.9822 15.619 74.2403 15.8508 74.2508 16.1509H74.2514Z" fill="white"/>
<path d="M107.374 10.57L109.122 10.8032C109.267 10.8229 109.374 10.9496 109.368 11.096L109.066 18.7053C109.059 18.8668 109.189 19.0008 109.35 19.0008H114.504C114.661 19.0008 114.788 18.8734 114.788 18.7165V1.21144C114.788 1.04268 114.641 0.910692 114.473 0.929079L109.997 1.40449C109.856 1.4196 109.749 1.53517 109.743 1.67569L109.506 7.64466C109.5 7.79044 109.385 7.90798 109.239 7.91717L107.393 8.03143C107.228 8.04194 107.089 7.90929 107.091 7.74447L107.183 0.297379C107.185 0.139126 107.057 0.00976562 106.899 0.00976562H104.349C104.192 0.00976562 104.065 0.137156 104.065 0.294096V17.7203C104.065 17.8714 104.183 17.9961 104.333 18.004L106.664 18.1327C106.825 18.1419 106.962 18.0139 106.964 17.8523L107.051 10.8485C107.053 10.6777 107.204 10.5477 107.373 10.57H107.374Z" fill="white"/>
<path d="M93.2884 23.5993V39.3945C93.2884 39.5278 93.4861 39.6446 93.7698 39.6794L98.3033 40.231C98.7163 40.2809 99.1215 40.1398 99.1215 39.946L99.1077 23.3708C99.1077 23.1948 98.7708 23.0583 98.386 23.078L93.8663 23.3071C93.5373 23.3235 93.2884 23.4503 93.2884 23.6V23.5993Z" fill="white"/>
<path d="M111.142 32.1076L107.562 22.9539C107.512 22.8265 107.389 22.7424 107.252 22.7424H101.606C101.422 22.7424 101.273 22.8915 101.273 23.0753V42.9279C101.273 43.1308 101.452 43.2864 101.653 43.2575L107.837 42.3724C108.005 42.3481 108.128 42.2016 108.122 42.0316L107.893 35.1407C107.881 34.7611 108.411 34.6593 108.539 35.0172L111.557 43.4414C111.604 43.574 111.73 43.662 111.87 43.662H114.514C114.698 43.662 114.847 43.513 114.847 43.3291V22.2427C114.847 22.0588 114.698 21.9098 114.514 21.9098H112.242C112.06 21.9098 111.911 22.0562 111.909 22.2388L111.785 31.9914C111.78 32.3571 111.275 32.449 111.142 32.1082L111.142 32.1076Z" fill="white"/>
<path d="M117.537 10.6331L116.997 41.3454C116.991 41.6704 117.259 41.9344 117.584 41.9239L119.686 41.8569C119.985 41.847 120.226 41.6074 120.236 41.3079L120.452 35.0428C120.461 34.7526 120.689 34.5162 120.978 34.4952L125.9 34.1314C126.154 34.1123 126.389 34.264 126.476 34.5024L128.767 40.7353C128.875 41.0302 129.202 41.1819 129.498 41.0729L139.674 37.3273C139.962 37.2209 140.114 36.9057 140.017 36.6142L130.423 7.66173C130.331 7.38134 130.039 7.21915 129.752 7.28744L117.973 10.09C117.721 10.1504 117.541 10.3737 117.536 10.6337L117.537 10.6331ZM120.639 29.6189L120.885 22.4587C120.907 21.8343 121.772 21.6957 121.987 22.2821L124.466 29.0266C124.59 29.3641 124.373 29.7312 124.017 29.785L121.293 30.2007C120.94 30.2545 120.626 29.9748 120.638 29.6189H120.639Z" fill="white"/>
<path d="M163.978 42.5339V67.9575C163.978 68.2438 164.184 68.4887 164.466 68.5386L177.24 70.7982C177.274 70.8041 177.308 70.8074 177.343 70.8074H189.052C189.378 70.8074 189.642 70.5428 189.642 70.2171V59.7717C189.642 59.4578 189.397 59.1991 189.084 59.182L186.025 59.0165C185.687 58.9981 185.403 59.2674 185.403 59.6062V64.0583C185.403 64.3407 185.203 64.5836 184.926 64.6375L178.371 65.9219C177.99 65.9967 177.641 65.6894 177.668 65.302L178.993 45.9925C179.012 45.7108 179.228 45.4823 179.508 45.4468L184.739 44.7895C185.092 44.7449 185.403 45.02 185.403 45.3752V50.6803C185.403 50.9857 185.635 51.2405 185.939 51.268L188.998 51.5484C189.344 51.5799 189.642 51.3081 189.642 50.9607V42.0697C189.642 41.788 189.442 41.545 189.166 41.4905L179.536 39.5875C179.468 39.5737 179.397 39.5724 179.328 39.5836L164.475 41.9501C164.189 41.9961 163.978 42.243 163.978 42.5333L163.978 42.5339Z" fill="#FF551A"/>
<path d="M17.675 60.3101L8.95265 59.0934C8.73135 59.0625 8.57047 58.8681 8.58098 58.6449L8.66831 56.8516C8.68079 56.5961 8.91193 56.407 9.16474 56.4457L13.1145 57.0505C13.368 57.0893 13.5998 56.8995 13.6109 56.6427L13.7265 54.0286C13.737 53.7883 13.5492 53.5854 13.3082 53.5781L9.27375 53.4573C9.0321 53.4501 8.84364 53.2459 8.85546 53.0049L8.91587 51.7625C8.92769 51.5235 9.13125 51.3396 9.36962 51.3528L18.6376 51.84C18.8845 51.8531 19.092 51.6561 19.092 51.4092V43.6049C19.092 43.3685 18.9016 43.1761 18.6652 43.1735L5.63721 43.0297C5.39687 43.0271 5.20053 43.2208 5.20053 43.4611V66.371C5.20053 66.6041 5.38571 66.7952 5.61882 66.8025L17.6014 67.1754C17.845 67.1833 18.0466 66.9876 18.0466 66.744V60.7376C18.0466 60.5222 17.8877 60.3397 17.6743 60.3101H17.675Z" fill="#FF551A"/>
<path d="M88.0661 67.3816L78.326 66.023C78.0791 65.9889 77.8992 65.7715 77.911 65.522L78.0088 63.5199C78.0226 63.2342 78.2807 63.0234 78.563 63.0668L82.9731 63.7418C83.2568 63.7851 83.5148 63.573 83.5273 63.2867L83.6567 60.3673C83.6685 60.0987 83.4584 59.8722 83.1898 59.8643L78.6852 59.7297C78.4153 59.7218 78.2052 59.4939 78.2183 59.224L78.2859 57.8365C78.2991 57.5699 78.5263 57.3644 78.7929 57.3788L89.1417 57.9232C89.4175 57.9377 89.6493 57.7183 89.6493 57.4419V48.7268C89.6493 48.4628 89.4365 48.2474 89.1726 48.2448L74.6251 48.0846C74.3565 48.082 74.1379 48.298 74.1379 48.5666V74.1491C74.1379 74.4098 74.3447 74.6225 74.6047 74.6311L87.9847 75.048C88.2565 75.0566 88.4818 74.8386 88.4818 74.5661V67.859C88.4818 67.6187 88.3045 67.4151 88.0661 67.3816Z" fill="#FF551A"/>
<path d="M134.778 70.7148L125.486 69.2091C125.25 69.171 125.079 68.93 125.09 68.6536L125.183 66.4341C125.196 66.1176 125.443 65.8838 125.712 65.9317L129.92 66.6797C130.19 66.7276 130.437 66.4925 130.449 66.1754L130.572 62.9394C130.584 62.6413 130.383 62.3904 130.127 62.3819L125.829 62.2328C125.571 62.2236 125.37 61.9715 125.383 61.6727L125.447 60.1348C125.46 59.8393 125.676 59.6115 125.931 59.6272L135.804 60.2307C136.067 60.2464 136.288 60.0035 136.288 59.6968V50.0362C136.288 49.7433 136.085 49.5049 135.833 49.5016L121.954 49.3237C121.698 49.3204 121.489 49.5607 121.489 49.8582V78.2164C121.489 78.5053 121.686 78.7417 121.935 78.7502L134.7 79.2125C134.96 79.2217 135.174 78.9801 135.174 78.6787V71.2434C135.174 70.9768 135.005 70.7509 134.778 70.7141L134.778 70.7148Z" fill="#FF551A"/>
<path d="M42.7092 42.9489V83.9614C42.7092 84.3653 43.0533 84.6838 43.4558 84.6522L47.5723 84.3318C47.9256 84.3042 48.2014 84.0146 48.2113 83.66L48.4122 76.3896C48.422 76.0396 48.6906 75.752 49.0393 75.7185L62.2971 74.4511C62.4041 74.4406 62.5072 74.4058 62.5985 74.3487L71.3123 68.9018C71.5152 68.775 71.638 68.5531 71.638 68.3141V49.0663C71.638 48.8667 71.552 48.6775 71.4022 48.5456L66.04 43.8334C65.9251 43.7323 65.7793 43.6719 65.6263 43.662L43.4453 42.2555C43.046 42.2299 42.7085 42.547 42.7085 42.9469L42.7092 42.9489ZM54.0036 67.3652L49.4037 67.6036C48.9999 67.6246 48.6637 67.2963 48.6749 66.8924L49.0682 52.645C49.0787 52.2543 49.4103 51.9496 49.8004 51.972L56.1134 52.3331C56.5219 52.3568 56.8213 52.7265 56.7589 53.131L54.6524 66.7788C54.6025 67.1032 54.3313 67.3481 54.0029 67.3652H54.0036Z" fill="#FF551A"/>
<path d="M91.8957 48.5968V74.507C91.8957 74.7335 92.0789 74.9167 92.3054 74.9167H98.5541C98.7708 74.9167 98.9501 74.748 98.9632 74.5319L99.3887 67.532C99.4019 67.316 99.5811 67.1472 99.7978 67.1472H101.288C101.515 67.1472 101.698 67.3304 101.698 67.557V75.4998C101.698 75.7421 101.907 75.9312 102.148 75.9076L107.621 75.3718C107.83 75.3514 107.99 75.1748 107.99 74.964V69.6005C107.99 69.5151 107.963 69.4317 107.913 69.3621L106.185 66.9469C106.074 66.7913 106.085 66.5799 106.212 66.4367L108.498 63.8574C108.565 63.7825 108.602 63.686 108.602 63.5855V51.951C108.602 51.8511 108.565 51.7546 108.499 51.6798L105.125 47.8561C105.044 47.7641 104.926 47.7129 104.803 47.7175L92.291 48.187C92.071 48.1956 91.897 48.3761 91.897 48.5961L91.8957 48.5968ZM104.304 63.5258L100.072 63.6289C99.832 63.6348 99.6383 63.4338 99.6527 63.1942L100.33 52.0534C100.344 51.8406 100.517 51.6739 100.73 51.6686L103.499 51.6049C103.717 51.5996 103.901 51.7671 103.917 51.9858L104.703 63.0871C104.719 63.3202 104.538 63.5199 104.304 63.5258H104.304Z" fill="#FF551A"/>
<path d="M111.347 51.7073V77.8139C111.347 78.0345 111.627 78.2275 112.028 78.2847L118.441 79.1961C119.025 79.2788 119.598 79.0457 119.598 78.7253L119.578 51.3291C119.578 51.0382 119.101 50.8123 118.557 50.8445L112.164 51.2234C111.698 51.251 111.347 51.4598 111.347 51.708V51.7073Z" fill="#FF551A"/>
<path d="M95.3174 86.7272H68.1588L61.2893 82.222L52.0742 86.7272C51.7152 86.7272 51.401 86.8927 51.3081 87.1305L50.5915 90.9271C50.4566 91.2726 50.8362 91.6121 51.3579 91.6121L95.9338 91.6003C96.4066 91.6003 96.7743 91.3179 96.7217 90.9954L96.1056 87.2106C96.0608 86.9354 95.7213 86.7266 95.3174 86.7266V86.7272Z" fill="#383294"/>
<path d="M1.8378 86.7588C1.54822 86.7588 1.29475 86.9242 1.21989 87.162L0.0241255 90.9587C-0.0848788 91.3041 0.221778 91.6436 0.642692 91.6436L36.6016 91.6318C36.9831 91.6318 37.2793 91.3494 37.2373 91.027L36.7402 87.2427C36.7041 86.9676 36.4302 86.7588 36.1045 86.7588H1.8378Z" fill="#383294"/>
<path d="M204.009 29.4278H146.185C145.697 29.4278 145.269 29.5924 145.142 29.8289L143.124 33.6051C142.94 33.9487 143.457 34.2864 144.167 34.2864L204.849 34.2746C205.492 34.2746 205.993 33.9937 205.921 33.673L205.082 29.9086C205.021 29.6349 204.559 29.4271 204.009 29.4271V29.4278Z" fill="#383294"/>
<path d="M54.5985 29.4127H7.15014C6.74893 29.4127 6.39827 29.5782 6.29452 29.8159L4.63844 33.612C4.48741 33.9574 4.91161 34.2969 5.49472 34.2969L55.288 34.285C55.8159 34.285 56.227 34.0027 56.1679 33.6803L55.4797 29.896C55.4298 29.6208 55.0503 29.412 54.5992 29.412L54.5985 29.4127Z" fill="#383294"/>
<path d="M127.348 42.7749L123.126 43.3377C122.819 43.3784 122.59 43.4401 122.595 43.4808L123.102 47.7635C123.106 47.7996 123.295 47.8094 123.561 47.7871L127.822 47.4345C128.21 47.4023 128.584 47.3189 128.578 47.2664" fill="#FF551A"/>
<path d="M192.28 42.7053V70.9827C192.28 71.2217 192.634 71.4312 193.142 71.4929L201.258 72.4799C201.997 72.5698 202.723 72.317 202.723 71.9697L202.698 42.2955C202.698 41.981 202.094 41.7361 201.406 41.7709L193.314 42.1813C192.725 42.2108 192.28 42.4374 192.28 42.7059V42.7053Z" fill="#FF551A"/>
<path d="M154.481 59.3028L148.813 43.5287C148.734 43.3088 148.539 43.1636 148.322 43.1636H139.379C139.087 43.1636 138.852 43.4204 138.852 43.7376V77.9472C138.852 78.2965 139.136 78.5644 139.454 78.5152L149.247 76.9898C149.514 76.9484 149.709 76.6949 149.699 76.4027L149.336 64.5285C149.316 63.8745 150.157 63.6998 150.36 64.3157L155.14 78.8317C155.215 79.0595 155.414 79.2119 155.636 79.2119H159.823C160.115 79.2119 160.35 78.9551 160.35 78.638V42.3021C160.35 41.9849 160.114 41.7282 159.823 41.7282H156.225C155.936 41.7282 155.701 41.981 155.697 42.2949L155.5 59.0999C155.493 59.7303 154.693 59.8886 154.482 59.3015L154.481 59.3028Z" fill="#FF551A"/>
<path d="M206.59 42.6974L205.923 80.6092C205.915 81.0104 206.246 81.3368 206.648 81.3237L209.242 81.2409C209.612 81.2291 209.909 80.933 209.922 80.5633L210.188 72.8292C210.2 72.4707 210.48 72.1791 210.838 72.1529L216.914 71.7037C217.227 71.6807 217.517 71.8679 217.626 72.1621L220.452 79.8567C220.586 80.2211 220.99 80.4076 221.355 80.2737L233.916 75.6502C234.272 75.5195 234.459 75.1301 234.341 74.7703L222.498 39.0307C222.383 38.6846 222.023 38.4837 221.669 38.5684L207.129 42.0276C206.817 42.1018 206.595 42.3783 206.589 42.6987L206.59 42.6974ZM210.418 66.134L210.722 57.2955C210.748 56.5245 211.817 56.3538 212.083 57.0774L215.142 65.4025C215.295 65.8195 215.028 66.2719 214.589 66.3389L211.226 66.8517C210.791 66.918 210.403 66.5726 210.418 66.1333V66.134Z" fill="#FF551A"/>
<path d="M39.7437 45.6116V42.308C39.7437 41.7899 39.3235 41.371 38.8054 41.371H30.7233C30.525 41.371 30.3483 41.4957 30.2814 41.6822L28.6227 46.3333C28.4894 46.7069 27.9811 46.7568 27.7775 46.416L24.4247 40.7912C24.2914 40.5672 24.0005 40.495 23.7779 40.6309L21.3568 42.1058C21.1427 42.2365 21.0685 42.5122 21.19 42.7322L26.3763 52.1637C26.4406 52.2813 26.4524 52.4211 26.4071 52.5472L21.7048 65.7328C21.6871 65.7833 21.6772 65.8365 21.6772 65.8904V70.6156C21.6772 70.8678 21.8769 71.0753 22.129 71.0845L27.8905 71.2979C28.0822 71.3051 28.2582 71.1961 28.3357 71.0208C28.752 70.0857 30.1323 66.9857 31.7989 63.2611C31.9591 62.9026 32.4628 62.8875 32.6433 63.2362C33.5607 65.0059 35.6265 68.9898 36.295 70.2788C36.4132 70.5073 36.6929 70.5966 36.9227 70.4804L39.7621 69.0456C39.9978 68.9267 40.0885 68.6365 39.9637 68.404L34.3559 58.0105C34.2863 57.8818 34.281 57.7282 34.3408 57.5949C36.712 52.3226 39.0096 47.2644 39.6406 46.0378C39.7089 45.9052 39.7437 45.76 39.7437 45.611V45.6116Z" fill="#FF551A"/>
<path d="M124.797 94.4374H117.753C117.803 93.8377 117.77 93.2971 117.651 92.8156C117.533 92.3342 117.33 91.9203 117.043 91.574C116.756 91.2192 116.38 90.9489 115.916 90.7631C115.451 90.5773 114.898 90.4843 114.256 90.4843C113.023 90.4843 111.92 90.7926 110.949 91.4093C109.977 92.0174 109.171 92.8917 108.529 94.032C107.887 95.1638 107.431 96.5153 107.161 98.0864C106.924 99.6068 106.916 100.87 107.135 101.875C107.363 102.88 107.807 103.632 108.466 104.13C109.133 104.628 109.999 104.877 111.063 104.877C111.772 104.877 112.423 104.793 113.014 104.624C113.614 104.455 114.146 104.214 114.611 103.902C115.084 103.581 115.485 103.201 115.814 102.762C116.152 102.314 116.41 101.82 116.587 101.279H123.682C123.412 102.377 122.93 103.501 122.238 104.649C121.545 105.79 120.65 106.841 119.552 107.804C118.454 108.759 117.161 109.532 115.675 110.123C114.188 110.714 112.516 111.01 110.657 111.01C108.225 111.01 106.126 110.478 104.36 109.413C102.604 108.349 101.328 106.795 100.534 104.751C99.7486 102.707 99.5923 100.215 100.065 97.2755C100.538 94.4374 101.472 92.0597 102.865 90.1423C104.259 88.2249 105.953 86.7805 107.946 85.8091C109.939 84.8377 112.06 84.3521 114.306 84.3521C116.004 84.3521 117.525 84.5759 118.868 85.0236C120.219 85.4712 121.355 86.1259 122.276 86.9874C123.205 87.8405 123.889 88.8921 124.328 90.1423C124.768 91.3924 124.924 92.8241 124.797 94.4374Z" fill="#FFB010"/>
<path d="M129.131 110.655H121.529L134.402 84.7068H144.031L148.288 110.655H140.686L138.152 91.8527H137.949L129.131 110.655ZM129.435 100.418H143.727L142.814 105.688H128.523L129.435 100.418Z" fill="#FFB010"/>
<path d="M175.405 84.7068L171.098 110.655H165.219L158.124 97.0221H157.971L155.691 110.655H148.646L152.954 84.7068H158.934L165.928 98.2891H166.131L168.361 84.7068H175.405Z" fill="#FFB010"/>
<path d="M174.924 90.383L175.887 84.7068H198.44L197.477 90.383H189.672L186.327 110.655H179.384L182.729 90.383H174.924Z" fill="#FFB010"/>
<path d="M198.108 110.655H190.506L203.379 84.7068H213.008L217.265 110.655H209.663L207.129 91.8527H206.926L198.108 110.655ZM198.412 100.418H212.704L211.792 105.688H197.5L198.412 100.418Z" fill="#FFB010"/>
<path d="M227.759 110.655H217.623L221.931 84.7068H231.662C234.331 84.7068 236.561 85.2432 238.352 86.3159C240.142 87.3886 241.413 88.9217 242.165 90.9151C242.917 92.9085 243.065 95.2821 242.609 98.0357C242.169 100.688 241.278 102.956 239.935 104.839C238.601 106.723 236.894 108.163 234.817 109.16C232.747 110.157 230.395 110.655 227.759 110.655ZM225.656 104.675H228.216C229.499 104.675 230.644 104.451 231.649 104.003C232.663 103.547 233.507 102.787 234.183 101.723C234.867 100.65 235.361 99.1844 235.666 97.3262C235.953 95.5692 235.944 94.2136 235.64 93.2591C235.336 92.2962 234.757 91.6289 233.904 91.2572C233.051 90.8771 231.949 90.6871 230.598 90.6871H227.987L225.656 104.675Z" fill="#FFB010"/>
<path d="M246.752 110.655H239.15L252.023 84.7068H261.652L265.909 110.655H258.307L255.773 91.8527H255.571L246.752 110.655ZM247.056 100.418H261.348L260.436 105.688H246.144L247.056 100.418Z" fill="#FFB010"/>
<path d="M235.715 7.74833C234.253 10.8115 234.039 13.2257 234.616 16.5858C231.335 16.4512 228.335 16.0523 225.147 15.2029C225.095 18.5958 225.254 21.9549 225.485 25.3368C225.518 25.8326 225.55 26.3285 225.583 26.8243C225.661 28.0212 225.742 29.2179 225.823 30.4145C227.549 30.0781 229.175 29.5361 230.843 28.9763C231.824 28.7095 232.595 28.6264 233.601 28.6859C233.644 28.8994 233.687 29.1129 233.731 29.3328C234.386 31.6506 235.366 32.5991 237.342 33.7637C237.66 33.9354 237.66 33.9354 237.984 34.1107C239.619 35.0336 240.126 35.8817 240.703 37.6746C240.809 37.9728 240.915 38.2709 241.024 38.5781C241.741 41.259 241.815 43.8519 241.823 46.6201C241.825 46.9875 241.827 47.3548 241.829 47.7333C241.785 52.8303 240.812 57.7787 239.858 62.7609C238.509 69.3567 238.509 69.3567 237.998 76.0494C245.921 76.0494 253.845 76.0494 262.009 76.0494C262.009 68.6109 260.884 61.5015 259.552 54.2084C258.611 49.0223 258.136 44.0992 258.27 38.8208C258.296 37.758 258.27 36.8726 258.098 35.8184C257.92 34.7239 258.082 33.984 258.361 32.9156C258.454 32.5511 258.546 32.1865 258.642 31.8109C258.742 31.4357 258.841 31.0604 258.944 30.6738C259.138 29.9231 259.331 29.1723 259.524 28.4212C259.611 28.0905 259.698 27.7597 259.788 27.4189C260.006 26.6381 260.006 26.6381 259.979 25.9202C260.385 25.9033 260.791 25.8863 261.209 25.8689C264.368 25.7282 267.523 25.5428 270.674 25.272C270.981 25.2491 271.287 25.2262 271.603 25.2026C271.887 25.1765 272.171 25.1503 272.463 25.1234C272.84 25.0914 272.84 25.0914 273.224 25.0588C273.981 24.919 273.981 24.919 274.521 23.8459C274.588 22.9232 274.616 22.0449 274.606 21.1233C274.608 20.8787 274.611 20.634 274.614 20.3819C274.608 18.9054 274.59 17.3472 273.507 16.2401C272.495 16.2017 271.489 16.1842 270.476 16.1793C269.85 16.1713 269.224 16.1629 268.598 16.1543C267.606 16.1422 266.615 16.132 265.623 16.1274C264.669 16.122 263.715 16.1081 262.762 16.0929C262.465 16.0935 262.168 16.0942 261.862 16.0949C259.791 16.0522 259.791 16.0522 259 15.2203C258.877 14.9864 258.754 14.7525 258.627 14.5115C257.638 14.0077 257.638 14.0077 256.513 13.6256C255.322 13.1885 254.187 12.7616 253.047 12.1995C251.861 11.7449 250.876 11.6109 249.623 11.4648C247.604 11.1984 247.604 11.1984 246.974 10.5384C246.865 10.345 246.755 10.1516 246.642 9.95229C246.213 9.47099 246.213 9.47099 245.776 8.97996C244.561 8.99689 243.389 9.1606 242.184 9.31353C241.041 9.32568 241.041 9.32567 240.29 8.89488C239.914 8.51573 239.546 8.12797 239.188 7.73078C238.63 7.12318 238.63 7.12319 237.406 7.03529C236.325 7.15496 236.325 7.15496 235.715 7.74833ZM213.226 17.3853C211.685 19.8044 212.037 23.6087 212.475 26.3523C212.868 28.1732 212.868 28.1732 213.93 29.6286C216.434 31.132 219.644 30.8409 222.441 30.7603C222.476 27.1187 222.457 23.487 222.293 19.8485C222.28 19.5382 222.267 19.228 222.253 18.9083C222.239 18.6192 222.225 18.33 222.21 18.0321C222.198 17.7774 222.185 17.5227 222.172 17.2602C222.119 16.5118 222.119 16.5118 221.765 15.5486C218.83 15.3961 215.678 15.6017 213.226 17.3853Z" fill="#FFB010"/>
</svg>
